<svg width="123" height="272" viewBox="0 0 123 272" fill="none" xmlns="http://www.w3.org/2000/svg">
<rect width="123" height="272" fill="white"/>
<path d="M71 216C63.2667 216 56.9333 214.4 52 211.2C47.2 207.867 43.3333 203.6 40.4 198.4H39.2L35.6 214H3.60001V205.6H5.20001C8.26667 205.6 11 205.267 13.4 204.6C15.9333 203.933 17.9333 202.6 19.4 200.6C20.8667 198.467 21.6 195.333 21.6 191.2V84C21.6 80 20.8 77.0667 19.2 75.2C17.7333 73.2 15.7333 71.9333 13.2 71.4C10.8 70.7333 8.13334 70.4 5.20001 70.4H3.60001V62H40.4V98.8C40.4 101.067 40.3333 104 40.2 107.6C40.2 111.067 40.1333 114.467 40 117.8C39.8667 121 39.7333 123.333 39.6 124.8H40.4C43.4667 118.667 47.4 113.8 52.2 110.2C57 106.6 63.2667 104.8 71 104.8C84.2 104.8 94.2667 109.267 101.2 118.2C108.267 127 111.8 141 111.8 160.2C111.8 173 110.2 183.533 107 191.8C103.933 200.067 99.3333 206.2 93.2 210.2C87.2 214.067 79.8 216 71 216ZM67.8 203.2C73.6667 203.2 78.4 201.533 82 198.2C85.6 194.867 88.2 190 89.8 183.6C91.5333 177.2 92.4 169.333 92.4 160C92.4 150.533 91.5333 142.667 89.8 136.4C88.2 130.133 85.6 125.467 82 122.4C78.4 119.2 73.6 117.6 67.6 117.6C57.2 117.6 50.0667 121.133 46.2 128.2C42.3333 135.133 40.4 145.8 40.4 160.2C40.4 169.4 41.2 177.2 42.8 183.6C44.5333 190 47.4 194.867 51.4 198.2C55.4 201.533 60.8667 203.2 67.8 203.2Z" fill="black"/>
</svg>
