<svg width="123" height="191" viewBox="0 0 123 191" fill="none" xmlns="http://www.w3.org/2000/svg">
<rect width="123" height="191" fill="white"/>
<path d="M71 176C63.2667 176 56.9333 174.4 52 171.2C47.2 167.867 43.3333 163.6 40.4 158.4H39.2L35.6 174H3.60001V165.6H5.20001C8.26667 165.6 11 165.267 13.4 164.6C15.9333 163.933 17.9333 162.6 19.4 160.6C20.8667 158.467 21.6 155.333 21.6 151.2V44C21.6 40 20.8 37.0667 19.2 35.2C17.7333 33.2 15.7333 31.9333 13.2 31.4C10.8 30.7333 8.13334 30.4 5.20001 30.4H3.60001V22H40.4V58.8C40.4 61.0667 40.3333 64 40.2 67.6C40.2 71.0667 40.1333 74.4667 40 77.8C39.8667 81 39.7333 83.3333 39.6 84.8H40.4C43.4667 78.6667 47.4 73.8 52.2 70.2C57 66.6 63.2667 64.8 71 64.8C84.2 64.8 94.2667 69.2667 101.2 78.2C108.267 87 111.8 101 111.8 120.2C111.8 133 110.2 143.533 107 151.8C103.933 160.067 99.3333 166.2 93.2 170.2C87.2 174.067 79.8 176 71 176ZM67.8 163.2C73.6667 163.2 78.4 161.533 82 158.2C85.6 154.867 88.2 150 89.8 143.6C91.5333 137.2 92.4 129.333 92.4 120C92.4 110.533 91.5333 102.667 89.8 96.4C88.2 90.1333 85.6 85.4667 82 82.4C78.4 79.2 73.6 77.6 67.6 77.6C57.2 77.6 50.0667 81.1333 46.2 88.2C42.3333 95.1333 40.4 105.8 40.4 120.2C40.4 129.4 41.2 137.2 42.8 143.6C44.5333 150 47.4 154.867 51.4 158.2C55.4 161.533 60.8667 163.2 67.8 163.2Z" fill="black"/>
</svg>
