<svg width="530" height="105" viewBox="0 0 530 105" fill="none" xmlns="http://www.w3.org/2000/svg">
<rect width="530" height="105" fill="white"/>
<path d="M11.2031 48.1719V49H4.3125V48.1719L6.6875 47.75L13.8281 27.875H16.7969L24.2188 47.75L26.875 48.1719V49H18.0156V48.1719L20.8281 47.75L18.75 41.7031H10.5L8.39062 47.75L11.2031 48.1719ZM14.5625 30.125L10.9688 40.2969H18.2656L14.5625 30.125Z" fill="#FF0000"/>
<path d="M42.0938 33.125C42.0938 31.8438 41.6927 30.9115 40.8906 30.3281C40.0885 29.7448 38.7865 29.4531 36.9844 29.4531H33.75V37.375H37.1719C38.8594 37.375 40.099 37.0417 40.8906 36.375C41.6927 35.7083 42.0938 34.625 42.0938 33.125ZM43.6719 43.0312C43.6719 41.5625 43.1823 40.4896 42.2031 39.8125C41.224 39.125 39.6562 38.7812 37.5 38.7812H33.75V47.5938C35.1875 47.6562 36.7188 47.6875 38.3438 47.6875C40.125 47.6875 41.4583 47.3125 42.3438 46.5625C43.2292 45.8021 43.6719 44.625 43.6719 43.0312ZM46.9062 42.9688C46.9062 44.9792 46.2083 46.5052 44.8125 47.5469C43.4271 48.5781 41.401 49.0938 38.7344 49.0938L32.0469 49H28.0469V48.1719L30.7344 47.75V29.2812L28.0469 28.875V28.0469H37.625C40.2812 28.0469 42.224 28.4427 43.4531 29.2344C44.6823 30.0156 45.2969 31.2604 45.2969 32.9688C45.2969 34.1979 44.9167 35.2448 44.1562 36.1094C43.4062 36.974 42.349 37.5521 40.9844 37.8438C42.8698 38.0417 44.3281 38.5938 45.3594 39.5C46.3906 40.3958 46.9062 41.5521 46.9062 42.9688Z" fill="#FF4400"/>
<path d="M58.3281 49H49.3906V48.1719L52.0781 47.7656V29.2969L49.3906 28.875V28.0469H65.9688L66.25 34.0625H65.2344L64.2656 29.7031C63.224 29.4948 61.5938 29.3906 59.375 29.3906H55.0938V47.7656L58.3281 48.1719V49Z" fill="#FF8000"/>
<path d="M86.8125 49H68.6562V47.75L76.1094 27.875H79.0781L86.8125 47.75V49ZM76.9062 30.3125L70.6562 47.2969H83.25L76.9062 30.3125Z" fill="#FFD900"/>
<path d="M88.2969 48.1719L90.9844 47.75V29.2812L88.2969 28.875V28.0469H104.016V33.0625H102.984L102.484 29.6719C101.318 29.526 99.6302 29.4531 97.4219 29.4531H94V37.6406H99.6562L100.141 35.1406H101.141V41.5781H100.141L99.6562 39.0469H94V47.5938H98.125C100.812 47.5938 102.573 47.5104 103.406 47.3438L104.297 43.4688H105.328L105.031 49H88.2969V48.1719Z" fill="#CCFF00"/>
<path d="M108.469 47.5312L120.219 29.3906H116.312C113.74 29.3906 111.969 29.4948 111 29.7031L110.516 33H109.438V28.0469H123.703V29.3906L111.875 47.6875H116.406C117.615 47.6875 118.839 47.6302 120.078 47.5156C121.328 47.401 122.208 47.2865 122.719 47.1719L123.641 43.1719H124.734L124.312 49H108.469V47.5312Z" fill="#91FF00"/>
<path d="M127.422 49V48.1719L130.109 47.75V29.2812L127.422 28.875V28.0469H135.812V28.875L133.125 29.2812V37.5156H142.984V29.2812L140.297 28.875V28.0469H148.672V28.875L145.984 29.2812V47.75L148.672 48.1719V49H140.297V48.1719L142.984 47.75V38.9219H133.125V47.75L135.812 48.1719V49H127.422Z" fill="#1EFF00"/>
<path d="M154.516 38.5C154.516 41.8646 155.078 44.3021 156.203 45.8125C157.328 47.3229 159.089 48.0781 161.484 48.0781C163.87 48.0781 165.63 47.3229 166.766 45.8125C167.901 44.3021 168.469 41.8646 168.469 38.5C168.469 35.1562 167.901 32.75 166.766 31.2812C165.641 29.8021 163.88 29.0625 161.484 29.0625C159.078 29.0625 157.312 29.8021 156.188 31.2812C155.073 32.75 154.516 35.1562 154.516 38.5ZM151.25 38.5C151.25 31.375 154.661 27.8125 161.484 27.8125C164.859 27.8125 167.411 28.7188 169.141 30.5312C170.87 32.3333 171.734 34.9896 171.734 38.5C171.734 42.0625 170.859 44.7552 169.109 46.5781C167.359 48.401 164.818 49.3125 161.484 49.3125C158.161 49.3125 155.625 48.4062 153.875 46.5938C152.125 44.7708 151.25 42.0729 151.25 38.5ZM158.656 39.4688L158.172 41.6875H157.172V35.25H158.172L158.656 37.4375H164.312L164.797 35.25H165.797V41.6875H164.797L164.312 39.4688H158.656Z" fill="#00FF40"/>
<path d="M180.188 47.75L182.875 48.1719V49H174.5V48.1719L177.188 47.75V29.2812L174.5 28.875V28.0469H182.875V28.875L180.188 29.2812V47.75Z" fill="#00FF99"/>
<path d="M204.797 28.0469V28.875L202.375 29.2812L195.484 36.3438L204.516 47.75L206.781 48.1719V49H201.5L193.297 38.5312L190.625 40.7188V47.75L193.625 48.1719V49H184.922V48.1719L187.609 47.75V29.2812L184.922 28.875V28.0469H193.312V28.875L190.625 29.2812V39.1562L200.312 29.2812L198.234 28.875V28.0469H204.797Z" fill="#00FFD0"/>
<path d="M211.359 47.75L214.172 48.1719V49H207.281V48.1719L209.547 47.75L216.328 27.875H219.297L226.25 47.75L228.906 48.1719V49H220.047V48.1719L222.859 47.75L217.156 30.2969L211.359 47.75Z" fill="#00EAFF"/>
<path d="M242.562 49H242.016L234.344 30.9844V47.75L237.156 48.1719V49H230.016V48.1719L232.703 47.75V29.2812L230.016 28.875V28.0469H236.359L243.172 43.9844L250.609 28.0469H256.609V28.875L253.922 29.2812V47.75L256.609 48.1719V49H248.109V48.1719L250.922 47.75V30.9844L242.562 49Z" fill="#0099FF"/>
<path d="M275.609 29.2812L272.797 28.875V28.0469H279.938V28.875L277.25 29.2812V49H275.734L262.812 30.1562V47.75L265.625 48.1719V49H258.484V48.1719L261.172 47.75V29.2812L258.484 28.875V28.0469H264.828L275.609 43.5625V29.2812Z" fill="#003BFF"/>
<path d="M299.281 49H282.75L282.453 43.1562H283.484L284.375 46.0938C284.74 46.1667 285.479 46.2292 286.594 46.2812C287.719 46.3229 288.88 46.3438 290.078 46.3438H292.375C295.062 46.3438 296.823 46.2604 297.656 46.0938L298.547 43.1562H299.578L299.281 49ZM283.547 28.0469H298.5L298.812 33.2188H297.781L296.969 30.7656C295.802 30.6198 294.115 30.5469 291.906 30.5469H290.141C287.891 30.5469 286.203 30.6198 285.078 30.7656L284.266 33.2188H283.234L283.547 28.0469ZM287.766 39.4688L287.281 41.6875H286.281V35.25H287.281L287.766 37.4375H294.266L294.75 35.25H295.75V41.6875H294.75L294.266 39.4688H287.766Z" fill="#1100FF"/>
<path d="M305.922 38.5C305.922 41.8646 306.484 44.3021 307.609 45.8125C308.734 47.3229 310.495 48.0781 312.891 48.0781C315.276 48.0781 317.036 47.3229 318.172 45.8125C319.307 44.3021 319.875 41.8646 319.875 38.5C319.875 35.1562 319.307 32.75 318.172 31.2812C317.047 29.8021 315.286 29.0625 312.891 29.0625C310.484 29.0625 308.719 29.8021 307.594 31.2812C306.479 32.75 305.922 35.1562 305.922 38.5ZM302.656 38.5C302.656 31.375 306.068 27.8125 312.891 27.8125C316.266 27.8125 318.818 28.7188 320.547 30.5312C322.276 32.3333 323.141 34.9896 323.141 38.5C323.141 42.0625 322.266 44.7552 320.516 46.5781C318.766 48.401 316.224 49.3125 312.891 49.3125C309.568 49.3125 307.031 48.4062 305.281 46.5938C303.531 44.7708 302.656 42.0729 302.656 38.5Z" fill="#6A00FF"/>
<path d="M325.391 49V48.1719L328.078 47.75V29.2812L325.391 28.875V28.0469H348.156V28.875L345.469 29.2812V47.75L348.156 48.1719V49H339.781V48.1719L342.469 47.75V29.4531H331.094V47.75L333.781 48.1719V49H325.391Z" fill="#AA00FF"/>
<path d="M362.469 34.25C362.469 32.5312 362.068 31.3021 361.266 30.5625C360.464 29.8229 359.115 29.4531 357.219 29.4531H355.688V39.375H357.312C359.073 39.375 360.37 38.974 361.203 38.1719C362.047 37.3698 362.469 36.0625 362.469 34.25ZM365.578 34.2188C365.578 36.3646 364.927 37.9948 363.625 39.1094C362.333 40.224 360.474 40.7812 358.047 40.7812H355.688V47.75L359.016 48.1719V49H350.188V48.1719L352.672 47.75V29.2812L349.984 28.875V28.0469H357.891C363.016 28.0469 365.578 30.1042 365.578 34.2188Z" fill="#DD00FF"/>
<path d="M377.469 37.3125V38.1094L371.172 46.3438H375.719C376.802 46.3438 378.104 46.3229 379.625 46.2812C381.156 46.2292 382.094 46.1667 382.438 46.0938L383.328 43.1562H384.359L384.062 49H368.125V47.8438L374.969 38.9062L368.25 29.2812V28.0469H383.109V33.0625H382.078L381.422 29.6719C380.255 29.526 378.661 29.4531 376.641 29.4531H372.016L377.469 37.3125Z" fill="#FF00DD"/>
<path d="M390.734 49V48.1719L394.062 47.75V29.3906H393.266C390.63 29.3906 388.828 29.4948 387.859 29.7031L387.438 32.9688H386.391V28.0469H404.828V32.9688H403.766L403.344 29.7031C403.031 29.6302 402.349 29.5677 401.297 29.5156C400.245 29.4531 399.094 29.4219 397.844 29.4219H397.078V47.75L400.406 48.1719V49H390.734Z" fill="#FF0084"/>
<path d="M418.156 40.75V47.75L421.484 48.1719V49H411.812V48.1719L415.141 47.75V40.8438L407.781 29.2812L405.422 28.875V28.0469H414.281V28.875L411.469 29.2812L417.484 38.9531L423.203 29.2812L420.547 28.875V28.0469H427.359V28.875L425.062 29.2812L418.156 40.75Z" fill="#FF004D"/>
<path d="M441.172 47.75L443.859 48.1719V49H435.484V48.1719L438.172 47.75V45.5312H436.484C434.964 45.5312 433.646 45.2552 432.531 44.7031C431.417 44.151 430.542 43.3073 429.906 42.1719C429.271 41.0365 428.953 39.7083 428.953 38.1875C428.953 35.9583 429.625 34.2448 430.969 33.0469C432.312 31.8385 434.203 31.2344 436.641 31.2344H438.172V29.2812L435.484 28.875V28.0469H443.859V28.875L441.172 29.2812V31.2344H442.719C445.156 31.2344 447.047 31.8385 448.391 33.0469C449.734 34.2448 450.406 35.9583 450.406 38.1875C450.406 39.6979 450.089 41.0208 449.453 42.1562C448.828 43.2917 447.958 44.1406 446.844 44.7031C445.729 45.2552 444.406 45.5312 442.875 45.5312H441.172V47.75ZM447.297 38.2188C447.297 36.3021 446.854 34.8594 445.969 33.8906C445.083 32.9219 443.776 32.4375 442.047 32.4375H441.172V44.3125H442.141C443.807 44.3125 445.083 43.7969 445.969 42.7656C446.854 41.724 447.297 40.2083 447.297 38.2188ZM432.062 38.2188C432.062 40.2083 432.505 41.724 433.391 42.7656C434.276 43.7969 435.552 44.3125 437.219 44.3125H438.172V32.4375H437.312C435.583 32.4375 434.276 32.9219 433.391 33.8906C432.505 34.8594 432.062 36.3021 432.062 38.2188Z" fill="#FF001A"/>
<path d="M456.859 47.75L459.453 48.1719V49H452.609V48.1719L454.922 47.75L462.047 38.2812L455.969 29.2812L453.609 28.875V28.0469H462.25V28.875L459.594 29.2812L463.938 35.75L468.797 29.2812L466.203 28.875V28.0469H473.062V28.875L470.75 29.2812L464.859 37.125L472.062 47.75L474.438 48.1719V49H465.797V48.1719L468.453 47.75L462.953 39.625L456.859 47.75Z" fill="#FF0004"/>
<path d="M489.297 47.75L492.141 48.1719V49H483.453V48.1719L486.297 47.75V41.0938C483.328 41.0938 481.151 40.5677 479.766 39.5156C478.38 38.4531 477.688 36.7656 477.688 34.4531V29.2812L475.781 28.875V28.0469H480.688V34.5312C480.688 36.3229 481.151 37.6562 482.078 38.5312C483.005 39.3958 484.411 39.8385 486.297 39.8594V29.2812L483.453 28.875V28.0469H492.141V28.875L489.297 29.2812V39.8594C491.193 39.849 492.604 39.4115 493.531 38.5469C494.469 37.6719 494.938 36.3333 494.938 34.5312V28.0469H499.844V28.875L497.938 29.2812V34.4531C497.938 36.7656 497.24 38.4531 495.844 39.5156C494.458 40.5677 492.276 41.0938 489.297 41.0938V47.75Z" fill="#FF1A00"/>
<path d="M512.766 29.0625C510.411 29.0625 508.661 29.6562 507.516 30.8438C506.37 32.0208 505.797 33.901 505.797 36.4844C505.797 38.5573 506.276 40.2135 507.234 41.4531C508.193 42.6927 509.552 43.4219 511.312 43.6406L511.734 49H502.844L502.547 43.8438H503.578L504.469 46.0938C505.302 46.2604 506.781 46.3438 508.906 46.3438H510.031L509.875 44.7656C507.635 44.4219 505.849 43.5052 504.516 42.0156C503.193 40.526 502.531 38.6823 502.531 36.4844C502.531 33.651 503.396 31.5 505.125 30.0312C506.854 28.5521 509.401 27.8125 512.766 27.8125C516.13 27.8125 518.677 28.5521 520.406 30.0312C522.135 31.5 523 33.651 523 36.4844C523 38.6823 522.333 40.526 521 42.0156C519.667 43.5052 517.885 44.4219 515.656 44.7656L515.5 46.3438H516.625C518.75 46.3438 520.229 46.2604 521.062 46.0938L521.953 43.8438H522.984L522.688 49H513.797L514.219 43.6406C515.99 43.4219 517.349 42.6927 518.297 41.4531C519.255 40.2135 519.734 38.5573 519.734 36.4844C519.734 33.8906 519.161 32.0052 518.016 30.8281C516.87 29.651 515.12 29.0625 512.766 29.0625Z" fill="#FF7700"/>
<path d="M6.79688 74.9219C6.79688 72.401 7.32812 70.4375 8.39062 69.0312C9.46354 67.6146 10.9688 66.9062 12.9062 66.9062C14.2396 66.9062 15.2969 67.2396 16.0781 67.9062C16.8594 68.5729 17.4948 69.6771 17.9844 71.2188H18.0781L19.1719 67.3125H21.625V67.9375C21.3854 68.3125 21.1042 68.8698 20.7812 69.6094C20.4583 70.349 19.8281 71.9635 18.8906 74.4531C19.4844 77.0156 20.1302 79.2188 20.8281 81.0625L21.5781 81.2969V82H18.2656C17.8802 80.7708 17.5365 79.3438 17.2344 77.7188H17.1406C16.3906 79.1458 15.776 80.1354 15.2969 80.6875C14.8177 81.2292 14.2865 81.6354 13.7031 81.9062C13.1198 82.1771 12.4479 82.3125 11.6875 82.3125C10.125 82.3125 8.91667 81.6719 8.0625 80.3906C7.21875 79.1094 6.79688 77.2865 6.79688 74.9219ZM9.625 74.9219C9.625 76.8385 9.86979 78.2969 10.3594 79.2969C10.849 80.2865 11.5 80.7812 12.3125 80.7812C12.9375 80.7812 13.4948 80.5833 13.9844 80.1875C14.4844 79.7917 14.9375 79.2292 15.3438 78.5C15.7604 77.7708 16.276 76.526 16.8906 74.7656C16.6198 72.4115 16.1875 70.724 15.5938 69.7031C15 68.6719 14.1823 68.1562 13.1406 68.1562C10.7969 68.1562 9.625 70.4115 9.625 74.9219Z" fill="#FF0004"/>
<path d="M29.375 88.8125H26.7812V67.2969C26.7812 64.6823 27.3021 62.724 28.3438 61.4219C29.3958 60.1198 31.0104 59.4688 33.1875 59.4688C34.9479 59.4688 36.3333 59.9427 37.3438 60.8906C38.3542 61.8281 38.8594 63.1406 38.8594 64.8281C38.8594 66.2135 38.5104 67.375 37.8125 68.3125C37.125 69.25 36.2188 69.8385 35.0938 70.0781V70.2344C36.6354 70.5573 37.776 71.1771 38.5156 72.0938C39.2656 73.0104 39.6406 74.2708 39.6406 75.875C39.6406 77.9167 39.1094 79.5 38.0469 80.625C36.9948 81.75 35.4896 82.3125 33.5312 82.3125C32.0312 82.3125 30.6458 82.0365 29.375 81.4844V88.8125ZM36.2031 64.875C36.2031 63.5417 35.9479 62.5156 35.4375 61.7969C34.9271 61.0781 34.1667 60.7188 33.1562 60.7188C31.8021 60.7188 30.8333 61.25 30.25 62.3125C29.6667 63.3646 29.375 65.0469 29.375 67.3594V80.3438C30.6042 80.7396 31.9271 80.9375 33.3438 80.9375C35.7188 80.9375 36.9062 79.2656 36.9062 75.9219C36.9062 74.2448 36.5156 73 35.7344 72.1875C34.9531 71.375 33.7552 70.9375 32.1406 70.875V69.6562C33.5469 69.6146 34.5729 69.2188 35.2188 68.4688C35.875 67.7188 36.2031 66.5208 36.2031 64.875Z" fill="#FF0044"/>
<path d="M47.926 88.72V82.224L41.75 64.848H44.662L47.766 74.096C47.9367 74.608 48.15 75.216 48.406 75.92C48.662 76.624 48.8967 77.3173 49.11 78C49.3447 78.6613 49.5153 79.2053 49.622 79.632H49.75C50.966 78.288 51.9153 76.88 52.598 75.408C53.302 73.9147 53.7927 72.304 54.07 70.576C54.3687 68.8267 54.518 66.9173 54.518 64.848H57.302C57.302 67.0453 57.11 69.1147 56.726 71.056C56.342 72.976 55.67 74.8427 54.71 76.656C53.7713 78.448 52.4487 80.272 50.742 82.128V88.72H47.926Z" fill="#FF0080"/>
<path d="M62.4688 63.4375C62.4688 62.2708 62.9115 61.349 63.7969 60.6719C64.6823 59.9844 65.8698 59.6406 67.3594 59.6406C68.3698 59.6406 69.651 59.8021 71.2031 60.125V63.3281H70.4688L69.8125 61.625C69.2604 61.1354 68.4531 60.8906 67.3906 60.8906C66.5469 60.8906 65.901 61.099 65.4531 61.5156C65.0156 61.9323 64.7969 62.4948 64.7969 63.2031C64.7969 63.776 65.0156 64.3646 65.4531 64.9688C65.901 65.5625 66.8854 66.474 68.4062 67.7031C69.8854 68.9219 70.9219 70.0885 71.5156 71.2031C72.1198 72.3073 72.4219 73.5625 72.4219 74.9688C72.4219 77.2708 71.875 79.0729 70.7812 80.375C69.6979 81.6667 68.151 82.3125 66.1406 82.3125C64.099 82.3125 62.5208 81.75 61.4062 80.625C60.3021 79.5 59.75 77.8802 59.75 75.7656C59.75 73.849 60.2448 72.2552 61.2344 70.9844C62.224 69.7135 63.6406 68.8385 65.4844 68.3594C64.349 67.3594 63.5625 66.4896 63.125 65.75C62.6875 65 62.4688 64.2292 62.4688 63.4375ZM62.4375 75.8906C62.4375 77.5573 62.7604 78.8385 63.4062 79.7344C64.0521 80.6302 64.9688 81.0781 66.1562 81.0781C67.2917 81.0781 68.1667 80.6146 68.7812 79.6875C69.3958 78.75 69.7031 77.3229 69.7031 75.4062C69.7031 74.1771 69.4792 73.1042 69.0312 72.1875C68.5833 71.2604 67.8438 70.3594 66.8125 69.4844L66.4219 69.1719C64.9844 69.6719 63.9583 70.4792 63.3438 71.5938C62.7396 72.6979 62.4375 74.1302 62.4375 75.8906Z" fill="#FF00AE"/>
<path d="M86.4531 70.5469H85.7031L84.8125 68.7812C84.5312 68.6146 84.1354 68.4688 83.625 68.3438C83.125 68.2083 82.6354 68.1406 82.1562 68.1406C81.1146 68.1406 80.3073 68.375 79.7344 68.8438C79.1719 69.3021 78.8906 69.9479 78.8906 70.7812C78.8906 71.4896 79.0625 72.0885 79.4062 72.5781C79.7604 73.0573 80.2292 73.3802 80.8125 73.5469C81.2292 73.5052 81.849 73.4688 82.6719 73.4375C83.5052 73.3958 84.0573 73.375 84.3281 73.375H84.8281V74.875H84.3281C83.6302 74.875 82.3646 74.8073 80.5312 74.6719C79.8125 74.8802 79.2656 75.25 78.8906 75.7812C78.5156 76.3021 78.3281 76.9271 78.3281 77.6562C78.3281 78.5938 78.6771 79.3333 79.375 79.875C80.0833 80.4167 81.0573 80.6875 82.2969 80.6875C83.0156 80.6875 83.724 80.6354 84.4219 80.5312C85.1198 80.4271 85.9479 80.2135 86.9062 79.8906V80.9062C85.4792 81.8438 83.6875 82.3125 81.5312 82.3125C79.625 82.3125 78.1615 81.9219 77.1406 81.1406C76.1302 80.349 75.625 79.2344 75.625 77.7969C75.625 76.849 75.9375 76.0521 76.5625 75.4062C77.1979 74.75 78.0521 74.3125 79.125 74.0938V73.9844C77.2083 73.349 76.25 72.2448 76.25 70.6719C76.25 69.5052 76.7917 68.5885 77.875 67.9219C78.9583 67.2552 80.4219 66.9219 82.2656 66.9219C83.7448 66.9219 85.1458 67.1094 86.4688 67.4844L86.4531 70.5469Z" fill="#C800FF"/>
<path d="M91.4531 76.1719C91.4531 74.2135 92.1458 72.0365 93.5312 69.6406C94.9167 67.2448 97.1875 64.3854 100.344 61.0625V61L91.9062 62.2656V60.4844C93.7812 60.3594 95.7292 60.2083 97.75 60.0312C99.7708 59.8438 101.271 59.6771 102.25 59.5312V60.5938C99.9375 63.3542 98.3021 65.4948 97.3438 67.0156C96.3854 68.526 95.6562 70 95.1562 71.4375C94.6667 72.875 94.4219 74.349 94.4219 75.8594C94.4219 76.6094 94.5521 77.2292 94.8125 77.7188C95.0833 78.2083 95.4792 78.6094 96 78.9219C96.5208 79.2344 97.4479 79.5521 98.7812 79.875C100.062 80.1771 101.016 80.5938 101.641 81.125C102.276 81.6458 102.594 82.3646 102.594 83.2812C102.594 84.2917 102.25 85.1354 101.562 85.8125C100.875 86.5 99.7083 87.1146 98.0625 87.6562V86.6406C98.875 86.3177 99.474 85.9635 99.8594 85.5781C100.245 85.1927 100.438 84.7292 100.438 84.1875C100.438 83.5417 100.167 83.0625 99.625 82.75C99.0833 82.4479 98.2812 82.1927 97.2188 81.9844C95.1875 81.5781 93.7188 80.9323 92.8125 80.0469C91.9062 79.151 91.4531 77.8594 91.4531 76.1719Z" fill="#E100FF"/>
<path d="M105.734 67.3125H110.234L110.375 68.7969C112.521 67.5469 114.26 66.9219 115.594 66.9219C116.906 66.9219 117.906 67.2917 118.594 68.0312C119.292 68.7708 119.641 69.8438 119.641 71.25V80.9062C119.641 82.2396 119.703 83.6354 119.828 85.0938C119.964 86.5521 120.12 87.5573 120.297 88.1094V88.8125H117.562C117.219 86.9375 117.047 84.3646 117.047 81.0938V71.5312C117.047 70.6146 116.833 69.9219 116.406 69.4531C115.979 68.9844 115.281 68.75 114.312 68.75C113.312 68.75 112.01 69.099 110.406 69.7969V82H107.812V68.4062L105.734 68.0156V67.3125Z" fill="#9900FF"/>
<path d="M137.812 70.9062C137.812 74.7708 137.281 77.6406 136.219 79.5156C135.156 81.3802 133.552 82.3125 131.406 82.3125C129.365 82.3125 127.844 81.375 126.844 79.5C125.844 77.6146 125.344 74.75 125.344 70.9062C125.344 67.0729 125.849 64.2344 126.859 62.3906C127.88 60.5469 129.438 59.625 131.531 59.625C133.635 59.625 135.208 60.5833 136.25 62.5C137.292 64.4062 137.812 67.2083 137.812 70.9062ZM131.406 60.875C130.615 60.875 129.984 61.1771 129.516 61.7812C129.057 62.375 128.719 63.2865 128.5 64.5156C128.292 65.7344 128.177 67.6562 128.156 70.2812H135C134.948 66.8542 134.641 64.4323 134.078 63.0156C133.516 61.5885 132.625 60.875 131.406 60.875ZM131.406 81.0781C132.604 81.0781 133.484 80.3646 134.047 78.9375C134.62 77.5 134.932 75.0729 134.984 71.6562H128.156C128.177 75.25 128.438 77.7188 128.938 79.0625C129.448 80.4062 130.271 81.0781 131.406 81.0781Z" fill="#5E00FF"/>
<path d="M145.984 78.6562C145.984 79.3333 146.104 79.8438 146.344 80.1875C146.594 80.5208 146.917 80.6875 147.312 80.6875C147.792 80.6875 148.38 80.6042 149.078 80.4375V81.4531C148.714 81.7135 148.245 81.9219 147.672 82.0781C147.099 82.2344 146.547 82.3125 146.016 82.3125C145.13 82.3125 144.469 82.0156 144.031 81.4219C143.604 80.8281 143.391 79.9948 143.391 78.9219V68.4062L141.312 68.0156V67.3125H145.984V78.6562Z" fill="#001AFF"/>
<path d="M156.156 74.9219L162.938 67.3125H165.828V68.0156L164 68.375L159.875 72.7188L165.188 80.9375L166.781 81.2969V82H162.781L158.156 74.6875L156.156 76.6875V82H153.562V68.3906L151.703 68.0156V67.3125H156.156V74.9219Z" fill="#0059FF"/>
<path d="M177.719 70.3906L172.828 82H169.875V81.4844L176.594 66.5938L175.891 64.4375C175.141 62.1042 174.234 60.9375 173.172 60.9375C172.88 60.9375 172.583 61 172.281 61.125L171.656 62.4219H170.891V59.7656C171.609 59.5677 172.38 59.4688 173.203 59.4688C174.172 59.4688 174.958 59.7865 175.562 60.4219C176.167 61.0573 176.76 62.25 177.344 64L182.562 79.7031C182.729 80.2031 182.984 80.5677 183.328 80.7969C183.672 81.026 184.021 81.1927 184.375 81.2969V82H181.312L177.719 70.3906Z" fill="#00A6FF"/>
<path d="M198.344 80.1094C197.396 80.974 196.604 81.5573 195.969 81.8594C195.333 82.1615 194.719 82.3125 194.125 82.3125C192.885 82.3125 191.948 81.9062 191.312 81.0938C191.312 84.0938 191.135 86.6667 190.781 88.8125H188V88.1094C188.219 87.4115 188.406 86.349 188.562 84.9219C188.729 83.4948 188.812 82.1615 188.812 80.9219V68.4062L186.625 68.0156V67.3125H191.406V77.5C191.406 78.4062 191.693 79.1354 192.266 79.6875C192.849 80.2292 193.641 80.5 194.641 80.5C195.172 80.5 195.766 80.375 196.422 80.125C197.089 79.875 197.703 79.5469 198.266 79.1406V68.4062L196.047 68.0156V67.3125H200.844V80.9062L202.984 81.2969V82H198.641L198.344 80.1094Z" fill="#00DDFF"/>
<path d="M218.688 68.5469C218.688 69.3802 218.38 70.4427 217.766 71.7344L212.734 82.3125H211.625L206.156 68.4062L205.047 68.0156V67.3125H208.688L213 78.8125L215.438 73.4062C215.792 72.6146 216.057 71.8802 216.234 71.2031C216.422 70.526 216.516 69.9896 216.516 69.5938C216.516 69.1354 216.385 68.7812 216.125 68.5312C215.875 68.2812 215.599 68.1094 215.297 68.0156V67.3125H218.391C218.589 67.6562 218.688 68.0677 218.688 68.5469Z" fill="#00FFAE"/>
<path d="M223.078 76.4375C223.078 75.1354 223.599 73.9635 224.641 72.9219C225.693 71.8698 227.25 71.0052 229.312 70.3281V70.1562C228.094 69.8125 227.089 69.2448 226.297 68.4531C225.505 67.6615 225.109 66.7812 225.109 65.8125C225.109 63.5104 227.234 61.8802 231.484 60.9219V60.875L223.859 61.2812V59.7656H225.172C228.995 59.7656 231.901 59.724 233.891 59.6406V60.9844C231.849 61.3698 230.302 61.9844 229.25 62.8281C228.198 63.6615 227.672 64.6823 227.672 65.8906C227.672 66.7969 227.974 67.5833 228.578 68.25C229.182 68.9062 229.922 69.3125 230.797 69.4688C231.828 69.3542 232.615 69.2969 233.156 69.2969H233.656V70.9531H233.156L230.828 70.75C229.182 71.2812 227.953 71.9635 227.141 72.7969C226.339 73.6198 225.938 74.6615 225.938 75.9219C225.938 76.6406 226.089 77.2292 226.391 77.6875C226.703 78.1458 227.161 78.526 227.766 78.8281C228.38 79.1198 229.594 79.4688 231.406 79.875C232.698 80.1562 233.656 80.5677 234.281 81.1094C234.906 81.6406 235.219 82.3646 235.219 83.2812C235.219 84.2917 234.875 85.1354 234.188 85.8125C233.5 86.5 232.333 87.1146 230.688 87.6562V86.6406C231.5 86.3177 232.099 85.9635 232.484 85.5781C232.87 85.1927 233.062 84.7292 233.062 84.1875C233.062 83.6042 232.828 83.1458 232.359 82.8125C231.891 82.4792 231.052 82.2031 229.844 81.9844C227.333 81.526 225.578 80.875 224.578 80.0312C223.578 79.1875 223.078 77.9896 223.078 76.4375Z" fill="#00FF80"/>
<path d="M252.062 74.5781C252.062 79.7344 249.771 82.3125 245.188 82.3125C242.979 82.3125 241.312 81.651 240.188 80.3281C239.062 79.0052 238.5 77.0885 238.5 74.5781C238.5 72.099 239.062 70.2031 240.188 68.8906C241.312 67.5781 243.021 66.9219 245.312 66.9219C247.542 66.9219 249.224 67.5677 250.359 68.8594C251.495 70.1406 252.062 72.0469 252.062 74.5781ZM249.25 74.5781C249.25 72.3281 248.922 70.6979 248.266 69.6875C247.609 68.6771 246.583 68.1719 245.188 68.1719C243.823 68.1719 242.833 68.6562 242.219 69.625C241.615 70.5938 241.312 72.2448 241.312 74.5781C241.312 76.9427 241.62 78.6198 242.234 79.6094C242.859 80.5885 243.844 81.0781 245.188 81.0781C246.562 81.0781 247.583 80.5677 248.25 79.5469C248.917 78.526 249.25 76.8698 249.25 74.5781Z" fill="#00FF1A"/>
<path d="M260.609 68.625C260.078 75.2188 259.755 78.9896 259.641 79.9375C259.536 80.875 259.427 81.5625 259.312 82H256.453V81.2969C256.995 80.7344 257.375 80.2448 257.594 79.8281C257.823 79.401 258 78.8906 258.125 78.2969C258.26 77.7031 258.37 76.9375 258.453 76L259.109 68.625H257.016L256.266 70.625H255.375L255.703 67.3125H270.297V68.625H267.672V78.6562C267.672 79.3333 267.797 79.8438 268.047 80.1875C268.297 80.5208 268.62 80.6875 269.016 80.6875C269.318 80.6875 269.745 80.6042 270.297 80.4375V81.4531C270.047 81.6615 269.703 81.8542 269.266 82.0312C268.828 82.2188 268.359 82.3125 267.859 82.3125C266.005 82.3125 265.078 81.1823 265.078 78.9219V68.625H260.609Z" fill="#40FF00"/>
<path d="M274.094 73.2344C274.094 71.2031 274.573 69.6562 275.531 68.5938C276.5 67.5208 277.865 66.9844 279.625 66.9844C280.979 66.9844 282.198 67.3229 283.281 68C284.375 68.6771 285.219 69.6406 285.812 70.8906C286.406 72.1406 286.703 73.5938 286.703 75.25C286.703 76.7188 286.438 77.9844 285.906 79.0469C285.385 80.099 284.646 80.9062 283.688 81.4688C282.74 82.0312 281.656 82.3125 280.438 82.3125C279.219 82.3125 277.964 82.0938 276.672 81.6562V88.8125H274.094V73.2344ZM280.062 81.0625C281.354 81.0625 282.328 80.5833 282.984 79.625C283.641 78.6562 283.969 77.2656 283.969 75.4531C283.969 73.974 283.792 72.724 283.438 71.7031C283.083 70.6719 282.583 69.8906 281.938 69.3594C281.302 68.8281 280.562 68.5625 279.719 68.5625C277.688 68.5625 276.672 70.0469 276.672 73.0156V80.3906C277.797 80.8385 278.927 81.0625 280.062 81.0625Z" fill="#88FF00"/>
<path d="M306.469 65.625H307.359L307.078 68.625H301.75V68.7344C302.719 69.5781 303.458 70.5625 303.969 71.6875C304.49 72.8021 304.75 73.9583 304.75 75.1562C304.75 77.375 304.135 79.125 302.906 80.4062C301.688 81.6771 300.047 82.3125 297.984 82.3125C295.87 82.3125 294.182 81.6094 292.922 80.2031C291.661 78.7969 291.031 76.9323 291.031 74.6094C291.031 72.3281 291.771 70.5417 293.25 69.25C294.74 67.9583 296.776 67.3125 299.359 67.3125H305.594L306.469 65.625ZM298.141 81.0781C299.318 81.0781 300.24 80.5521 300.906 79.5C301.573 78.4479 301.906 76.9688 301.906 75.0625C301.906 73.6354 301.734 72.3646 301.391 71.25C301.047 70.125 300.573 69.25 299.969 68.625C297.99 68.625 296.474 69.1667 295.422 70.25C294.37 71.3229 293.844 72.8906 293.844 74.9531C293.844 76.8802 294.229 78.3854 295 79.4688C295.781 80.5417 296.828 81.0781 298.141 81.0781Z" fill="#C8FF00"/>
<path d="M311.438 68.625L310.688 70.625H309.797L310.125 67.3125H321.25V68.625H316.656V78.6562C316.656 80.0104 317.198 80.6875 318.281 80.6875C318.708 80.6875 319.271 80.6042 319.969 80.4375V81.4531C319.719 81.6615 319.307 81.8542 318.734 82.0312C318.161 82.2188 317.615 82.3125 317.094 82.3125C316.177 82.3125 315.443 82.0365 314.891 81.4844C314.339 80.9219 314.062 80.0677 314.062 78.9219V68.625H311.438Z" fill="#FFEE00"/>
<path d="M331.875 82.3125C330.021 82.3125 328.599 81.8542 327.609 80.9375C326.63 80.0104 326.141 78.6719 326.141 76.9219V68.4062L324.266 68.0156V67.3125H328.734V77.5938C328.734 78.6354 329.005 79.4583 329.547 80.0625C330.099 80.6667 330.88 80.9688 331.891 80.9688C333.182 80.9688 334.12 80.5 334.703 79.5625C335.297 78.6146 335.594 77.026 335.594 74.7969C335.594 72.9844 335.458 71.5156 335.188 70.3906C334.927 69.2656 334.448 68.4948 333.75 68.0781L333.734 66.9375C335.349 67.2812 336.531 68.0833 337.281 69.3438C338.042 70.5938 338.422 72.3125 338.422 74.5C338.422 76.9792 337.844 78.901 336.688 80.2656C335.542 81.6302 333.938 82.3125 331.875 82.3125Z" fill="#FFC400"/>
<path d="M351.484 88.8125H349.828V82.25C347.411 82.0729 345.609 81.375 344.422 80.1562C343.245 78.9271 342.656 77.1146 342.656 74.7188C342.656 72.3958 343.089 70.6094 343.953 69.3594C344.818 68.099 346.266 67.2917 348.297 66.9375L348.281 68.0781C347.281 68.4531 346.562 69.1354 346.125 70.125C345.698 71.1042 345.484 72.6042 345.484 74.625C345.484 76.625 345.833 78.1458 346.531 79.1875C347.229 80.2188 348.328 80.8542 349.828 81.0938V71.5312C349.828 70.0521 350.146 68.9115 350.781 68.1094C351.417 67.3073 352.323 66.9062 353.5 66.9062C355.135 66.9062 356.401 67.5365 357.297 68.7969C358.193 70.0469 358.641 71.8854 358.641 74.3125C358.641 76.6771 358.026 78.5417 356.797 79.9062C355.568 81.2708 353.797 82.0573 351.484 82.2656V88.8125ZM355.844 74.5312C355.844 72.4583 355.615 70.8802 355.156 69.7969C354.698 68.7135 354.052 68.1719 353.219 68.1719C352.062 68.1719 351.484 69.2917 351.484 71.5312V81.0625C352.974 80.8438 354.073 80.2083 354.781 79.1562C355.49 78.0938 355.844 76.5521 355.844 74.5312Z" fill="#FF8C00"/>
<path d="M375.594 67.9219C375.281 68.474 374.948 69.0781 374.594 69.7344C374.24 70.3906 372.802 73.1354 370.281 77.9688L374.438 86.7344C374.667 87.224 374.911 87.5625 375.172 87.75C375.443 87.9375 375.755 88.0573 376.109 88.1094V88.8125H373.719C373.594 88.7292 373.417 88.4792 373.188 88.0625C372.969 87.6458 372.797 87.2812 372.672 86.9688L369.422 79.625C368.818 80.8125 368.052 82.375 367.125 84.3125C366.198 86.2604 365.505 87.7604 365.047 88.8125H362.078V88.2969C362.766 87.099 364.771 83.2969 368.094 76.8906L364.516 69.3906C364.182 68.6719 363.469 68.2135 362.375 68.0156V67.3125H365.234C365.495 67.4896 365.776 67.9375 366.078 68.6562L368.938 75.2031C370.292 72.4948 371.516 69.8646 372.609 67.3125H375.594V67.9219Z" fill="#FF6F00"/>
<path d="M389.688 81.0625C391.167 80.9792 392.302 80.5521 393.094 79.7812C393.896 79 394.297 77.9688 394.297 76.6875V67.3125H398.766V68.0156L396.875 68.4062V76.375C396.875 77.5208 396.594 78.5312 396.031 79.4062C395.479 80.2708 394.667 80.9531 393.594 81.4531C392.521 81.9427 391.219 82.2135 389.688 82.2656V88.8125H388.031V82.2812C385.74 82.2083 383.964 81.6615 382.703 80.6406C381.443 79.6094 380.812 78.1875 380.812 76.375V68.4062L378.938 68.0156V67.3125H383.406V76.6875C383.406 77.9688 383.812 79 384.625 79.7812C385.438 80.5625 386.573 80.9896 388.031 81.0625V67.3125H389.688V81.0625Z" fill="#FF2600"/>
<path d="M417.266 75.4688C417.266 71.5938 415.896 69.1146 413.156 68.0312V67C415.344 67.3646 417.047 68.2917 418.266 69.7812C419.484 71.2604 420.094 73.1406 420.094 75.4219C420.094 77.5781 419.641 79.2656 418.734 80.4844C417.828 81.7031 416.557 82.3125 414.922 82.3125C413.016 82.3125 411.682 81.3333 410.922 79.375H410.797C410.036 81.3333 408.698 82.3125 406.781 82.3125C405.156 82.3125 403.875 81.7031 402.938 80.4844C402 79.2656 401.531 77.5781 401.531 75.4219C401.531 73.1198 402.141 71.2292 403.359 69.75C404.589 68.2708 406.292 67.3542 408.469 67V68.0312C407.135 68.5521 406.115 69.4427 405.406 70.7031C404.708 71.9531 404.359 73.5417 404.359 75.4688C404.359 77.0729 404.635 78.349 405.188 79.2969C405.75 80.2448 406.521 80.7188 407.5 80.7188C408.125 80.7188 408.688 80.4167 409.188 79.8125C409.698 79.2083 410.031 78.3958 410.188 77.375L410.047 76.5312C409.766 74.9375 409.625 73.8646 409.625 73.3125V72.5H412.219V73.3125C412.219 73.8854 412.021 75.2396 411.625 77.375C411.802 78.4167 412.12 79.224 412.578 79.7969C413.036 80.3594 413.578 80.6406 414.203 80.6406C415.182 80.6406 415.938 80.1875 416.469 79.2812C417 78.3646 417.266 77.0938 417.266 75.4688Z" fill="#FF0000"/>
</svg>
