<svg width="554" height="540" viewBox="0 0 554 540" fill="none" xmlns="http://www.w3.org/2000/svg">
<path d="M552.782 191.73L400.632 0.940425C400.393 0.64095 400.089 0.400429 399.742 0.237441C399.395 0.0744526 399.016 -0.0066406 398.632 0.000425131H154.632C154.249 -0.0066406 153.87 0.0744526 153.523 0.237441C153.176 0.400429 152.871 0.64095 152.632 0.940425L0.5424 191.73C0.309444 192.024 0.145363 192.366 0.0622814 192.731C-0.0208004 193.096 -0.02076 193.475 0.0623997 193.84L54.3624 431.75C54.4452 432.117 54.6095 432.46 54.8433 432.755C55.077 433.049 55.3741 433.287 55.7124 433.45L275.572 539.34C275.911 539.504 276.282 539.588 276.657 539.588C277.033 539.588 277.404 539.504 277.742 539.34L497.612 433.46C497.951 433.297 498.248 433.059 498.482 432.765C498.715 432.47 498.88 432.127 498.962 431.76L553.262 193.85C553.347 193.484 553.348 193.103 553.265 192.736C553.182 192.368 553.017 192.025 552.782 191.73Z" fill="black"/>
<path d="M459.702 380.09C463.683 364.656 465.699 348.78 465.702 332.84C465.702 228.46 381.082 143.84 276.702 143.84C172.322 143.84 87.7024 228.46 87.7024 332.84C87.7055 348.78 89.7215 364.656 93.7024 380.09H459.702Z" fill="white"/>
<path d="M276.662 414.84C372.346 414.84 449.912 409.298 449.912 402.46C449.912 395.623 372.346 390.08 276.662 390.08C180.979 390.08 103.412 395.623 103.412 402.46C103.412 409.298 180.979 414.84 276.662 414.84Z" fill="white"/>
<path d="M276.662 450.84C354.949 450.84 418.412 444.796 418.412 437.34C418.412 429.885 354.949 423.84 276.662 423.84C198.376 423.84 134.912 429.885 134.912 437.34C134.912 444.796 198.376 450.84 276.662 450.84Z" fill="white"/>
<path d="M276.662 477.84C311.456 477.84 339.662 473.811 339.662 468.84C339.662 463.87 311.456 459.84 276.662 459.84C241.868 459.84 213.662 463.87 213.662 468.84C213.662 473.811 241.868 477.84 276.662 477.84Z" fill="white"/>
<path d="M42.8524 217.26L28.6724 213.44L42.8524 209.62L46.6724 195.44L50.4924 209.62L64.6724 213.44L50.4924 217.26L46.6724 231.44L42.8524 217.26Z" fill="white"/>
<path d="M170.172 52.6904L155.992 48.8704L170.172 45.0504L173.992 30.8704L177.812 45.0504L191.992 48.8704L177.812 52.6904L173.992 66.8704L170.172 52.6904Z" fill="white"/>
<path d="M502.422 200.94L488.242 197.12L502.422 193.3L506.242 179.12L510.062 193.3L524.242 197.12L510.062 200.94L506.242 215.12L502.422 200.94Z" fill="white"/>
<path d="M491.672 293.19L477.492 289.37L491.672 285.55L495.492 271.37L499.312 285.55L513.492 289.37L499.312 293.19L495.492 307.37L491.672 293.19Z" fill="white"/>
<path d="M339.672 54.4404L325.492 50.6204L339.672 46.8004L343.492 32.6204L347.312 46.8004L361.492 50.6204L347.312 54.4404L343.492 68.6204L339.672 54.4404Z" fill="white"/>
<path d="M69.1724 284.44L54.9924 280.62L69.1724 276.8L72.9924 262.62L76.8124 276.8L90.9924 280.62L76.8124 284.44L72.9924 298.62L69.1724 284.44Z" fill="white"/>
<path d="M233.172 58.9404L218.992 55.1204L233.172 51.3004L236.992 37.1204L240.812 51.3004L254.992 55.1204L240.812 58.9404L236.992 73.1204L233.172 58.9404Z" fill="white"/>
<path d="M207.992 39.8704C210.478 39.8704 212.492 37.8557 212.492 35.3704C212.492 32.8851 210.478 30.8704 207.992 30.8704C205.507 30.8704 203.492 32.8851 203.492 35.3704C203.492 37.8557 205.507 39.8704 207.992 39.8704Z" fill="white"/>
<path d="M219.492 127.87C221.978 127.87 223.992 125.856 223.992 123.37C223.992 120.885 221.978 118.87 219.492 118.87C217.007 118.87 214.992 120.885 214.992 123.37C214.992 125.856 217.007 127.87 219.492 127.87Z" fill="white"/>
<path d="M313.492 35.3704C315.978 35.3704 317.992 33.3557 317.992 30.8704C317.992 28.3851 315.978 26.3704 313.492 26.3704C311.007 26.3704 308.992 28.3851 308.992 30.8704C308.992 33.3557 311.007 35.3704 313.492 35.3704Z" fill="white"/>
<path d="M297.242 79.3704C299.728 79.3704 301.742 77.3557 301.742 74.8704C301.742 72.3851 299.728 70.3704 297.242 70.3704C294.757 70.3704 292.742 72.3851 292.742 74.8704C292.742 77.3557 294.757 79.3704 297.242 79.3704Z" fill="white"/>
<path d="M48.2424 264.12C50.7277 264.12 52.7424 262.106 52.7424 259.62C52.7424 257.135 50.7277 255.12 48.2424 255.12C45.7571 255.12 43.7424 257.135 43.7424 259.62C43.7424 262.106 45.7571 264.12 48.2424 264.12Z" fill="white"/>
<path d="M488.992 324.87C491.478 324.87 493.492 322.856 493.492 320.37C493.492 317.885 491.478 315.87 488.992 315.87C486.507 315.87 484.492 317.885 484.492 320.37C484.492 322.856 486.507 324.87 488.992 324.87Z" fill="white"/>
<path d="M259.492 109.87C261.978 109.87 263.992 107.856 263.992 105.37C263.992 102.885 261.978 100.87 259.492 100.87C257.007 100.87 254.992 102.885 254.992 105.37C254.992 107.856 257.007 109.87 259.492 109.87Z" fill="white"/>
<path d="M78.8275 233.461C80.1275 231.343 79.4643 228.572 77.3462 227.272C75.228 225.972 72.4571 226.635 71.157 228.753C69.857 230.871 70.5202 233.642 72.6383 234.942C74.7565 236.242 77.5275 235.579 78.8275 233.461Z" fill="white"/>
<path d="M386.492 49.8704C388.978 49.8704 390.992 47.8557 390.992 45.3704C390.992 42.8851 388.978 40.8704 386.492 40.8704C384.007 40.8704 381.992 42.8851 381.992 45.3704C381.992 47.8557 384.007 49.8704 386.492 49.8704Z" fill="white"/>
<path d="M66.9924 333.37C69.4777 333.37 71.4924 331.356 71.4924 328.87C71.4924 326.385 69.4777 324.37 66.9924 324.37C64.5071 324.37 62.4924 326.385 62.4924 328.87C62.4924 331.356 64.5071 333.37 66.9924 333.37Z" fill="white"/>
<path d="M292.992 106.62C294.235 106.62 295.242 105.613 295.242 104.37C295.242 103.128 294.235 102.12 292.992 102.12C291.75 102.12 290.742 103.128 290.742 104.37C290.742 105.613 291.75 106.62 292.992 106.62Z" fill="white"/>
<path d="M58.2424 308.87C59.485 308.87 60.4924 307.863 60.4924 306.62C60.4924 305.378 59.485 304.37 58.2424 304.37C56.9998 304.37 55.9924 305.378 55.9924 306.62C55.9924 307.863 56.9998 308.87 58.2424 308.87Z" fill="white"/>
<path d="M93.7424 248.12C94.985 248.12 95.9924 247.113 95.9924 245.87C95.9924 244.628 94.985 243.62 93.7424 243.62C92.4998 243.62 91.4924 244.628 91.4924 245.87C91.4924 247.113 92.4998 248.12 93.7424 248.12Z" fill="white"/>
<path d="M52.2424 181.62C53.485 181.62 54.4924 180.613 54.4924 179.37C54.4924 178.128 53.485 177.12 52.2424 177.12C50.9998 177.12 49.9924 178.128 49.9924 179.37C49.9924 180.613 50.9998 181.62 52.2424 181.62Z" fill="white"/>
<path d="M145.992 70.1204C147.235 70.1204 148.242 69.1131 148.242 67.8704C148.242 66.6278 147.235 65.6204 145.992 65.6204C144.75 65.6204 143.742 66.6278 143.742 67.8704C143.742 69.1131 144.75 70.1204 145.992 70.1204Z" fill="white"/>
<path d="M239.492 129.87C240.735 129.87 241.742 128.863 241.742 127.62C241.742 126.378 240.735 125.37 239.492 125.37C238.25 125.37 237.242 126.378 237.242 127.62C237.242 128.863 238.25 129.87 239.492 129.87Z" fill="white"/>
<path d="M189.492 72.8704C190.735 72.8704 191.742 71.8631 191.742 70.6204C191.742 69.3778 190.735 68.3704 189.492 68.3704C188.25 68.3704 187.242 69.3778 187.242 70.6204C187.242 71.8631 188.25 72.8704 189.492 72.8704Z" fill="white"/>
<path d="M269.992 125.12C271.235 125.12 272.242 124.113 272.242 122.87C272.242 121.628 271.235 120.62 269.992 120.62C268.75 120.62 267.742 121.628 267.742 122.87C267.742 124.113 268.75 125.12 269.992 125.12Z" fill="white"/>
<path d="M289.072 94.2904C290.315 94.2904 291.322 93.283 291.322 92.0404C291.322 90.7978 290.315 89.7904 289.072 89.7904C287.83 89.7904 286.822 90.7978 286.822 92.0404C286.822 93.283 287.83 94.2904 289.072 94.2904Z" fill="white"/>
<path d="M269.492 69.3704C270.735 69.3704 271.742 68.3631 271.742 67.1204C271.742 65.8778 270.735 64.8704 269.492 64.8704C268.25 64.8704 267.242 65.8778 267.242 67.1204C267.242 68.3631 268.25 69.3704 269.492 69.3704Z" fill="white"/>
<path d="M280.322 44.9604C281.565 44.9604 282.572 43.9531 282.572 42.7104C282.572 41.4678 281.565 40.4604 280.322 40.4604C279.08 40.4604 278.072 41.4678 278.072 42.7104C278.072 43.9531 279.08 44.9604 280.322 44.9604Z" fill="white"/>
<path d="M252.162 31.6204C253.405 31.6204 254.412 30.6131 254.412 29.3704C254.412 28.1278 253.405 27.1204 252.162 27.1204C250.92 27.1204 249.912 28.1278 249.912 29.3704C249.912 30.6131 250.92 31.6204 252.162 31.6204Z" fill="white"/>
<path d="M368.492 35.6204C369.735 35.6204 370.742 34.6131 370.742 33.3704C370.742 32.1278 369.735 31.1204 368.492 31.1204C367.25 31.1204 366.242 32.1278 366.242 33.3704C366.242 34.6131 367.25 35.6204 368.492 35.6204Z" fill="white"/>
<path d="M327.822 81.4604C329.065 81.4604 330.072 80.4531 330.072 79.2104C330.072 77.9678 329.065 76.9604 327.822 76.9604C326.58 76.9604 325.572 77.9678 325.572 79.2104C325.572 80.4531 326.58 81.4604 327.822 81.4604Z" fill="white"/>
<path d="M502.492 234.62C503.735 234.62 504.742 233.613 504.742 232.37C504.742 231.128 503.735 230.12 502.492 230.12C501.25 230.12 500.242 231.128 500.242 232.37C500.242 233.613 501.25 234.62 502.492 234.62Z" fill="white"/>
<path d="M493.162 344.96C494.405 344.96 495.412 343.953 495.412 342.71C495.412 341.468 494.405 340.46 493.162 340.46C491.92 340.46 490.912 341.468 490.912 342.71C490.912 343.953 491.92 344.96 493.162 344.96Z" fill="white"/>
<path d="M511.822 267.62C513.065 267.62 514.072 266.613 514.072 265.37C514.072 264.128 513.065 263.12 511.822 263.12C510.58 263.12 509.572 264.128 509.572 265.37C509.572 266.613 510.58 267.62 511.822 267.62Z" fill="white"/>
<path d="M518.992 235.87C521.478 235.87 523.492 233.856 523.492 231.37C523.492 228.885 521.478 226.87 518.992 226.87C516.507 226.87 514.492 228.885 514.492 231.37C514.492 233.856 516.507 235.87 518.992 235.87Z" fill="white"/>
<path d="M496.992 258.37C499.478 258.37 501.492 256.356 501.492 253.87C501.492 251.385 499.478 249.37 496.992 249.37C494.507 249.37 492.492 251.385 492.492 253.87C492.492 256.356 494.507 258.37 496.992 258.37Z" fill="white"/>
<path d="M234.662 259.37C235.742 259.23 236.862 259.37 237.952 259.26C239.464 259.103 240.922 258.61 242.22 257.818C243.517 257.025 244.622 255.954 245.452 254.68C246.858 252.477 248.394 250.36 250.052 248.34C253.382 244.64 257.102 241.27 260.342 237.5C261.962 235.62 262.942 233.17 264.092 230.92C264.672 229.79 264.862 228.46 265.452 227.34C266.332 225.65 267.592 224.13 268.312 222.34C268.782 221.21 268.562 219.79 268.692 217.97L276.012 218.45C275.954 218.896 275.864 219.338 275.742 219.77C272.852 227.311 269 234.447 264.282 241C262.872 243 261.412 244.89 260.032 246.87C258.182 249.55 256.442 252.32 254.542 254.97C253.542 256.42 252.232 257.71 251.102 259.1C250.992 259.24 251.102 259.54 251.102 259.9L253.102 259.16L252.232 260.92C253.902 260.23 255.742 259.83 257.142 258.82C259.582 257.06 261.702 254.82 264.052 252.98C264.53 252.621 265.043 252.309 265.582 252.05C264.342 253.86 262.582 256.19 260.102 259.27C263.931 255.49 267.424 251.385 270.542 247C273.542 243.12 276.472 239.19 279.052 235.05C282.994 228.567 285.921 221.519 287.732 214.15C287.993 213.028 288.65 212.038 289.582 211.36C294.082 208.8 298.712 206.45 303.682 203.82V228.82C299.622 226.73 298.452 227.32 298.282 231.05L295.672 230.56C296.122 231.35 295.842 231.69 296.102 232.15L295.102 232.55C296.222 235.29 297.282 237.89 298.322 240.49C298.422 240.75 298.452 241.24 298.322 241.37C296.772 242.68 297.622 244.18 297.852 245.68C298.074 246.668 298.074 247.693 297.852 248.68C296.362 253.47 299.362 255.52 303.172 256.45C308.242 257.68 316.642 251.04 315.952 245.61C315.505 240.906 315.728 236.162 316.612 231.52C316.782 229.335 316.825 227.141 316.742 224.95C316.742 223.69 317.062 222.45 317.142 221.19C317.242 219.45 317.292 217.7 317.312 215.96C317.362 210.27 317.592 204.56 317.312 198.88C317.182 195.99 318.182 193.18 317.142 190.13C316.552 188.39 317.902 185.95 318.502 183.86C319.102 181.77 317.502 179.47 315.352 179.86C311.522 180.6 307.652 181.34 304.162 183.25C301.162 184.88 298.162 186.46 295.162 188.09L299.732 170.09C298.592 169.09 297.352 168.43 296.732 167.4C295.392 165.13 293.032 164.65 290.962 163.73C287.322 162.12 284.962 165.16 281.842 166.22C282.622 168.37 281.732 168.82 280.262 170.05C278.262 171.76 277.822 173.53 279.072 175.88C279.802 177.26 280.352 178.73 281.072 180.1C281.462 180.82 281.392 182.31 282.142 182.52C285.062 183.31 286.262 184.19 285.242 188.19C284.932 189.4 284.632 190.61 284.242 191.79C284.012 192.42 283.682 193.26 283.162 193.51C279.082 195.42 275.112 197.66 270.802 198.96C268.692 199.6 268.232 199.24 268.382 197.18C270.442 197.69 271.232 197.32 269.912 195.3C269.681 194.762 269.595 194.172 269.662 193.59C272.152 193.02 269.942 191.16 270.662 190.16L272.272 190.51C270.132 186.82 273.752 188.7 274.652 187.51L273.762 186.02C270.342 180.23 267.762 178.62 261.182 180.15C254.602 181.68 248.592 184.6 242.712 187.89C239.419 189.831 235.95 191.458 232.352 192.75C229.352 193.75 226.522 194.62 223.952 196.64C221.552 198.53 220.152 200.43 220.952 203.64L223.022 203.27C222.832 203.4 222.742 204.52 222.552 204.65C224.862 208.24 227.072 210.83 229.392 214.42C232.142 218.69 237.922 218.79 241.562 216.72C242.732 216.05 243.822 215.24 245.562 214.12C245.392 217.97 245.132 221.22 245.132 224.46C245.132 229.38 242.702 232.59 238.462 234.69C237.762 235.183 237.026 235.624 236.262 236.01C234.762 236.48 233.142 237.18 231.672 237.01C229.396 236.586 227.229 235.705 225.302 234.42C224.362 235.07 221.862 237.08 220.922 237.68C217.252 240.02 217.442 241.58 219.052 245.5C219.746 247.063 220.64 248.529 221.712 249.86C223.149 251.765 224.702 253.578 226.362 255.29C228.582 257.62 230.992 259.84 234.662 259.37ZM257.232 210C257.302 209 258.032 208 257.912 207.13C257.512 204.06 258.912 202.48 261.732 201.75C263.502 201.29 265.232 200.66 267.582 199.91L263.912 203.38C264.192 204.04 264.012 205.58 264.222 206.06C263.222 207.99 262.452 208.83 261.962 210.72C261.092 214.09 263.732 215.47 266.112 216.91C266.691 217.186 267.23 217.539 267.712 217.96C267.109 217.975 266.511 218.086 265.942 218.29C264.602 218.9 263.292 219.59 262.012 220.29C260.282 221.29 258.582 222.29 256.382 223.6C256.672 218.63 256.902 214.29 257.232 210Z" fill="black"/>
<path d="M327.312 349.62H335.412C330.652 347.06 325.812 344.96 321.042 342.72C313.802 339.32 306.592 335.83 299.392 332.33C297.072 331.2 294.782 330 292.572 328.68C287.902 325.88 283.342 322.88 278.572 320.16C277.132 319.33 275.222 318.56 273.712 318.82C271.292 319.24 270.712 317.38 268.662 316.09C271.242 315.09 272.592 315.01 274.912 314.09C275.802 313.74 276.642 313.25 277.542 312.94C279.932 312.13 282.542 311.79 284.692 310.53C289.082 307.88 293.412 306.45 298.392 308.68C299.992 309.39 301.752 309.45 302.902 307.98C304.434 305.929 305.853 303.796 307.152 301.59C307.287 301.358 307.369 301.098 307.391 300.83C307.414 300.562 307.377 300.292 307.282 300.04C306.365 298.461 305.363 296.933 304.282 295.46C303.664 294.682 302.996 293.944 302.282 293.25C301.222 292.85 300.342 292.59 299.532 292.19C297.652 291.28 295.822 290.19 293.912 289.39C293.242 289.164 292.511 289.196 291.862 289.48C289.572 290.48 287.452 292.03 285.082 292.68C280.202 294.01 270.862 295.87 269.512 296.21C269.774 294.297 270.226 292.414 270.862 290.59C275.582 287.78 281.302 286.78 285.312 284.21C285.662 283.98 286.402 284.21 286.912 284.39C288.562 284.97 289.492 284.33 290.292 282.85C291.372 280.85 292.162 278.69 294.352 277.33C295.052 276.9 295.352 274.33 294.822 273.65C291.292 269.55 287.242 266.25 281.192 267.4C279.487 267.631 277.772 267.774 276.052 267.83C276.484 266.907 276.868 265.963 277.202 265C277.434 264.222 277.545 263.413 277.532 262.6C277.493 260.738 277.603 258.875 277.862 257.03C274.152 254.74 267.592 256.8 266.472 261.03C265.854 263.415 265.463 265.852 265.302 268.31C265.202 269.73 265.482 269.77 263.402 270.49C259.572 271.81 255.712 273.01 251.852 274.24C251.106 274.435 250.348 274.578 249.582 274.67C247.44 274.902 245.32 275.306 243.242 275.88C242.462 276.15 242.072 277.67 241.612 278.66C241.402 279.12 241.612 279.78 241.322 280.21C240.322 281.96 240.962 283.29 242.182 284.61C242.826 285.396 243.411 286.229 243.932 287.1C247.862 292.87 253.242 295.61 260.252 294.98C260.832 294.93 261.612 294.39 262.442 294.26C262.217 295.712 261.842 297.136 261.322 298.51C260.839 299.241 260.095 299.76 259.242 299.96C258.352 300.2 256.922 300.54 256.032 300.78C254.462 301.2 253.372 301.36 251.792 301.67C249.082 302.2 244.572 302.92 243.622 302.54C240.992 301.92 238.952 301.21 236.472 302.96C234.272 304.52 231.912 309.61 233.072 311.96C235.542 316.96 238.992 320.81 244.962 321.36C248.287 321.82 251.663 321.742 254.962 321.13C248.032 337.13 237.792 351.48 222.132 360.37C223.524 360.388 224.911 360.209 226.252 359.84C230.142 358.68 234.252 357.53 237.782 355.61C241.171 353.733 244.215 351.291 246.782 348.39C249.722 345.1 252.082 341.28 254.622 337.65C258.747 331.977 261.885 325.648 263.902 318.93C264.192 317.93 265.902 317.28 266.962 316.47C267.162 316.7 266.962 317.47 267.192 317.65C266.571 318.532 265.831 319.323 264.992 320C263.622 321 263.792 322.15 264.412 323.28C265.424 325.295 266.623 327.21 267.992 329C272.232 334.13 276.522 339.22 280.992 344.13C284.931 348.675 289.797 352.323 295.262 354.83C301.742 357.65 306.762 357.95 315.262 357.51C315.552 357.51 315.852 357.29 316.152 357.25C320.662 356.54 324.502 353.08 329.442 353.97L326.072 352.67C327.422 350.02 329.842 353.08 331.442 351.6L327.222 350.13L327.312 349.62Z" fill="black"/>
<path d="M473.842 203.85C474.602 200.42 473.982 192.65 468.602 188.26C463.222 183.87 464.862 179.89 465.602 175.42C466.342 170.95 463.032 163.83 456.882 162.47C451.742 161.33 448.882 156.21 449.692 152.22C450.502 148.23 455.232 147.53 459.802 149.59C458.152 142.75 452.802 140.22 446.802 139.75C440.802 139.28 434.752 133.14 437.192 129.61C439.372 126.46 442.822 128.54 445.762 130.26C448.702 131.98 452.452 132.7 459.182 132.15C452.592 128.35 449.092 122.83 446.652 120.15C439.652 112.48 433.652 119.65 432.382 114.75C431.242 110.34 436.042 109.75 439.382 111.2C442.302 112.44 444.822 110.58 446.872 110.2C448.612 109.88 450.032 111.2 451.162 113.69C452.292 116.18 456.682 119.47 461.052 120.96C465.422 122.45 465.532 121.38 472.282 123.2C467.222 117.37 467.502 113.31 463.672 110.12C459.842 106.93 455.042 106.45 451.582 105.69C446.822 104.69 444.872 100.87 442.422 98.2404C440.492 96.1704 436.982 96.4304 433.642 95.1104C430.302 93.7904 428.332 89.7004 432.642 86.7204C436.952 83.7404 440.162 85.5204 445.102 83.7204C451.592 81.3804 451.102 80.1004 451.552 74.9604C447.612 73.3604 446.792 71.9604 440.912 73.5104C435.342 74.9704 429.972 77.3104 428.012 75.1304C426.052 72.9504 431.272 70.1304 436.652 70.1304C439.657 70.0455 442.633 69.5164 445.482 68.5604C445.482 68.5604 438.532 58.9504 436.732 57.0904C432.232 57.6804 427.732 56.0904 421.352 54.3304C415.352 52.6704 409.262 54.0804 405.762 58.9104C404.29 61.0896 402.293 62.8625 399.954 64.065C397.615 65.2676 395.011 65.861 392.382 65.7904C385.002 65.7904 377.112 70.6304 377.772 76.1804C378.482 82.1304 386.122 81.1804 390.902 81.5404C398.812 82.2004 410.322 89.4204 407.642 99.2304C406.052 105.05 400.832 105.52 398.642 106.23C395.642 107.23 392.832 110.48 391.112 113.42C389.392 116.36 385.432 118.09 381.282 117.16C377.612 116.34 377.602 112.69 380.282 111.85C382.962 111.01 387.182 110.18 389.282 106.85C391.382 103.52 393.062 94.0004 399.522 95.0804C392.722 88.7504 387.702 93.8104 385.192 95.9404C382.682 98.0704 378.282 98.4104 375.192 97.8104C373.6 97.5024 371.956 97.6174 370.422 98.1438C368.888 98.6702 367.52 99.5897 366.452 100.81C363.862 103.5 356.002 105.93 355.362 101.23C354.722 96.5304 361.902 98.0104 365.142 94.6504C367.982 91.7104 368.602 86.7704 373.242 86.3504C364.932 80.5104 358.772 82.4104 354.242 86.4304C350.362 89.9104 349.172 93.6304 344.462 93.0104C339.752 92.3904 335.212 95.5104 332.522 101.49C332.235 100.318 331.766 99.1978 331.132 98.1704C330.027 96.6969 329.284 94.9841 328.962 93.1704C328.792 91.5004 328.962 89.3404 334.292 87.1704C331.622 86.6704 326.482 87.6504 323.712 90.6704C320.112 94.6004 320.292 99.9804 321.882 104.36C320.6 104.968 319.384 105.705 318.252 106.56C314.942 109.08 311.882 111.98 310.662 117.09C303.852 118.2 290.392 123.71 287.882 125.84C294.732 126.31 307.012 125.2 311.242 125.98C315.752 131.41 321.962 134.19 326.882 134.09C331.802 133.99 334.102 133.61 336.882 132.59C342.082 130.68 344.582 127.96 348.132 128.09C354.882 128.34 361.002 133.44 363.382 144.59C363.981 147.33 365.397 149.824 367.443 151.742C369.489 153.66 372.069 154.911 374.842 155.33C375.35 156.717 376.076 158.013 376.992 159.17C380.482 163.59 384.852 163.26 389.872 166.17C387.642 161.46 387.872 158.6 386.872 155.66C391.542 156.99 393.492 161.36 395.162 166.57C396.832 171.78 400.402 173.18 403.822 173.74C404.273 176.411 405.364 178.933 407.002 181.09C410.522 185.49 414.882 185.09 419.922 187.98C419.922 185.48 416.502 182.11 416.502 179.36C417.709 181.149 419.341 182.61 421.252 183.61C423.362 184.61 425.942 183.02 426.252 187.43C426.562 191.84 427.342 196.2 431.392 199.74C435.922 203.74 439.012 206.09 442.642 212.83C441.642 206.26 443.192 199.57 441.502 194.27C439.812 188.97 436.222 187.72 434.582 185.06C432.942 182.4 435.792 181.85 436.082 178.33C436.352 174.98 433.082 170.8 435.732 170.23C438.592 169.61 441.422 175.7 441.942 178.99C442.462 182.28 444.382 188.3 449.402 189.88C454.422 191.46 458.332 192.07 459.612 198.57C460.892 205.07 463.612 207.7 466.802 209.02C470.222 210.46 472.552 214.35 476.332 219.32C474.552 212.52 473.082 207.28 473.842 203.85ZM326.472 118.3C322.602 119.65 320.722 116.3 316.912 116.59C319.662 109.34 326.912 108.8 329.492 111.76C329.622 115.5 328.362 117.64 326.472 118.3Z" fill="white"/>
<path d="M449.992 199.69C448.812 206.48 445.992 210.34 446.992 216.37C447.992 222.61 452.482 224.67 455.842 230.23C456.342 222.46 459.252 220.23 458.842 214.56C458.482 208.25 452.842 206 449.992 199.69Z" fill="white"/>
<path d="M464.712 224.37C462.712 233.13 458.852 237.97 459.712 245.88C460.622 254.07 466.302 257.05 470.302 264.52C471.482 254.45 475.412 251.74 475.302 244.34C475.202 236.09 467.992 232.79 464.712 224.37Z" fill="white"/>
<path d="M464.992 144.37C466.992 150.17 466.482 154.37 469.832 158.65C473.312 163.08 477.672 162.77 482.682 165.65C479.742 159.38 481.052 156.39 478.322 152.13C475.342 147.4 469.992 148.08 464.992 144.37Z" fill="white"/>
<path d="M463.652 126.73C466.552 131.47 466.922 135.29 470.732 138.42C474.542 141.55 478.472 140.53 483.472 142.11C479.642 137.11 480.222 134.24 476.972 131C473.362 127.4 468.752 129 463.652 126.73Z" fill="white"/>
<path d="M348.782 130.34C350.662 134.97 348.682 137.34 350.322 140.92C352.322 145.34 358.492 145.67 363.322 149.46C360.952 146.96 361.072 141.08 358.702 137.09C356.102 132.78 352.102 130.09 348.782 130.34Z" fill="white"/>
<path d="M465.522 96.8605C460.702 93.8605 459.582 90.3905 455.172 88.8605C450.602 87.2205 447.502 89.4305 442.052 90.2705C447.932 93.0205 447.512 95.7005 451.472 97.5905C455.862 99.6405 459.772 97.2405 465.522 96.8605Z" fill="white"/>
<path d="M236.782 85.1104C236.322 82.6104 234.322 79.0404 231.782 78.2504C228.712 77.2504 225.002 77.6504 221.782 77.4504C215.412 77.0604 209.222 74.9404 203.422 78.7404C200.422 80.7404 198.992 85.0404 195.822 86.5404C193.732 87.5404 190.822 87.3704 188.592 87.2504C181.262 86.8604 175.592 83.6504 169.242 80.4704C160.882 76.2904 150.172 73.2504 140.882 75.6304C129.592 78.5404 123.312 93.0004 128.082 103.52C131.372 110.81 138.992 115.23 146.082 118.07C153.802 121.16 161.632 121.9 169.682 123.52C173.542 124.3 178.682 126.08 179.452 130.59C179.601 131.942 179.424 133.309 178.935 134.577C178.446 135.846 177.66 136.979 176.642 137.88C174.552 139.67 171.312 140.45 168.812 139.1C167.074 138.003 165.767 136.34 165.112 134.39C163.802 131.14 162.992 127.71 161.642 124.47C147.262 122.08 125.582 115.05 124.472 97.6304C112.062 96.2304 99.1724 102.33 90.6024 111.04C81.2524 120.54 74.4424 137.36 81.9624 149.82C89.8119 146.565 97.8988 143.914 106.152 141.89C104.832 139.83 105.152 136.96 107.242 134.63C102.022 133.63 96.5224 133.83 91.3824 132.57C87.7424 131.68 86.7224 129.27 90.2824 127.33C97.6724 123.33 109.412 122.13 117.012 126.1C119.524 124.7 122.34 123.937 125.215 123.878C128.09 123.819 130.935 124.465 133.502 125.76C136.862 127.57 139.022 131.13 140.832 134.36C145.142 142.07 148.062 151.48 155.512 156.86C172.892 169.39 197.642 152.02 198.752 132.59C199.232 124.12 195.522 115.49 188.002 111.14C178.642 105.72 168.182 105.31 157.912 103.02C154.172 102.19 147.202 101.27 146.572 96.5304C146.082 92.8804 149.022 90.3304 152.472 90.6204C156.592 90.9704 160.662 93.0204 164.392 94.6204C168.895 96.737 173.508 98.6097 178.212 100.23C184.198 102.055 190.516 102.516 196.702 101.58C197.762 101.43 198.882 101.08 199.952 101.03C201.452 100.96 202.132 101.45 203.582 102.03C206.73 103.305 210.154 103.746 213.522 103.31C219.396 102.552 224.893 99.9992 229.262 96.0004C231.093 94.1822 232.766 92.2118 234.262 90.1104C235.292 88.6704 237.132 87.0604 236.782 85.1104ZM197.522 90.4604C190.522 92.1504 182.442 90.7204 176.042 87.7504C168.662 84.3304 161.982 79.7004 153.672 78.8504C146.562 78.1204 138.822 79.8504 135.232 86.5804C131.892 92.8904 132.992 101.79 138.862 106.26C132.662 101.93 131.512 92.8004 134.782 86.3504C138.452 79.1004 146.782 77.3504 154.262 78.2304C162.602 79.1704 169.342 84.0104 176.742 87.4904C180.184 89.0679 183.852 90.097 187.612 90.5404C190.862 90.9604 195.852 91.6204 198.872 90.0004C198.446 90.2148 197.991 90.3696 197.522 90.4604ZM229.592 89.5504C228.732 89.7604 228.852 91.0404 228.672 91.6704C228.566 92.2353 228.305 92.7595 227.918 93.185C227.531 93.6104 227.035 93.9204 226.482 94.0804C225.662 94.3104 221.992 93.8504 221.712 93.0804C221.712 92.9904 222.402 91.4404 222.442 91.3404C222.822 90.1804 222.912 89.1504 224.142 88.6004C226.412 87.6004 230.652 88.6004 230.692 88.9704C230.732 89.3404 229.752 89.5204 229.592 89.5604V89.5504Z" fill="white"/>
<path d="M136.812 176.74C134.812 164.25 122.972 157.92 115.292 153.6C108.772 158.49 101.542 162.03 94.6624 166.37C98.5977 169.37 102.756 172.065 107.102 174.43C109.932 176.03 113.252 177.91 113.612 181.49C114.322 188.54 107.402 193.09 99.3924 194.19C93.8524 194.95 90.0724 193.94 85.9024 190.28C82.3024 187.11 79.7224 182.16 80.9924 177.28C82.5124 171.45 86.8924 168.11 93.5324 163.89C100.172 159.67 106.922 156.89 113.322 152.18C117.432 149.18 124.042 144.67 123.452 137.5C123.165 135.072 122.169 132.783 120.591 130.916C119.012 129.049 116.919 127.687 114.572 127C111.566 126.172 108.449 125.811 105.332 125.93C100.332 125.98 90.1624 128.25 90.2124 129.93C90.2624 131.61 100.712 131.31 106.212 132.19C110.132 132.82 114.552 134 114.132 138.57C113.742 142.77 108.242 143.89 103.412 145.3C95.3124 147.67 88.2424 149.66 82.0824 152.53C72.9924 156.74 64.2924 163.85 61.7024 174C59.2524 183.58 63.0124 193.74 69.2224 201.08C84.2224 218.81 110.372 217.87 126.452 201.7C132.662 195.44 138.272 185.9 136.812 176.74ZM116.992 202.12C112.128 204.991 106.68 206.73 101.052 207.21C98.2592 207.486 95.4456 207.486 92.6524 207.21C91.2589 207.06 89.8762 206.823 88.5124 206.5C87.1317 206.196 85.7898 205.736 84.5124 205.13C87.1091 206.143 89.8497 206.737 92.6324 206.89C95.4008 207.108 98.1837 207.058 100.942 206.74C103.694 206.426 106.41 205.85 109.052 205.02C111.687 204.18 114.211 203.029 116.572 201.59C121.34 198.746 125.331 194.768 128.192 190.01C129.622 187.673 130.738 185.158 131.512 182.53C132.132 180.3 133.002 175.65 131.912 173.05C132.586 174.671 132.854 176.432 132.692 178.18C132.62 179.588 132.422 180.987 132.102 182.36C131.328 185.145 130.174 187.811 128.672 190.28C125.833 195.144 121.817 199.215 116.992 202.12Z" fill="white"/>
<path d="M126.312 102.33C121.83 101.355 117.18 101.455 112.742 102.62C108.236 103.733 104.099 106.005 100.742 109.21C104.001 105.866 108.075 103.43 112.562 102.14C117.069 100.784 121.832 100.514 126.462 101.35L126.312 102.33Z" fill="#231F20"/>
<path d="M109.512 188.62C111.233 187.236 112.727 185.594 113.942 183.75C115.18 181.907 116.062 179.848 116.542 177.68C117.014 175.499 116.959 173.237 116.382 171.08C115.757 168.914 114.74 166.881 113.382 165.08C114.803 166.842 115.891 168.848 116.592 171C117.265 173.193 117.405 175.513 117.002 177.77C116.587 180.029 115.752 182.189 114.542 184.14C113.348 186.11 111.853 187.881 110.112 189.39C110.062 189.433 110.005 189.466 109.942 189.486C109.88 189.506 109.814 189.514 109.748 189.509C109.616 189.499 109.494 189.436 109.407 189.335C109.321 189.235 109.279 189.104 109.289 188.972C109.299 188.839 109.362 188.717 109.462 188.63L109.512 188.62Z" fill="#231F20"/>
<path d="M407.182 163.26C407.978 164.605 408.992 165.808 410.182 166.82C411.347 167.842 412.708 168.614 414.182 169.09C415.642 169.58 417.182 169.91 418.692 170.28C420.247 170.653 421.767 171.161 423.232 171.8L422.592 172.51C421.795 171.163 421.125 169.743 420.592 168.27C420.072 166.79 419.692 165.27 419.302 163.82C418.925 162.361 418.299 160.978 417.452 159.73C416.633 158.443 415.506 157.381 414.172 156.64C415.624 157.229 416.891 158.196 417.842 159.44C418.795 160.692 419.522 162.1 419.992 163.6C420.502 165.07 420.882 166.55 421.442 167.95C421.988 169.36 422.657 170.719 423.442 172.01L424.262 173.39L422.802 172.72C421.391 172.096 419.929 171.591 418.432 171.21C416.89 170.837 415.37 170.373 413.882 169.82C412.385 169.223 411.024 168.329 409.882 167.19C408.746 166.06 407.83 164.727 407.182 163.26Z" fill="#231F20"/>
<path d="M428.052 154.2C428.928 155.494 430.013 156.633 431.262 157.57C432.477 158.506 433.868 159.186 435.352 159.57C436.832 159.96 438.352 160.2 439.932 160.47C441.509 160.744 443.058 161.155 444.562 161.7L443.972 162.45C443.09 161.158 442.33 159.785 441.702 158.35C441.082 156.91 440.612 155.43 440.132 154C439.669 152.556 438.958 151.203 438.032 150C437.133 148.77 435.94 147.783 434.562 147.13C436.052 147.624 437.381 148.508 438.412 149.69C439.452 150.872 440.278 152.226 440.852 153.69C441.462 155.13 441.932 156.57 442.572 157.94C443.199 159.31 443.945 160.622 444.802 161.86L445.712 163.18L444.212 162.6C442.763 162.066 441.271 161.655 439.752 161.37C438.189 161.099 436.643 160.735 435.122 160.28C433.583 159.782 432.16 158.976 430.942 157.91C429.76 156.861 428.78 155.604 428.052 154.2Z" fill="#231F20"/>
<path d="M414.822 125.1C415.896 125.91 417.1 126.529 418.382 126.93C419.63 127.349 420.957 127.479 422.262 127.31C423.562 127.15 424.862 126.81 426.202 126.52C427.555 126.209 428.935 126.032 430.322 125.99L430.022 126.89C428.924 126.024 427.909 125.057 426.992 124C426.072 123 425.242 121.83 424.442 120.75C423.66 119.663 422.696 118.719 421.592 117.96C420.5 117.155 419.205 116.67 417.852 116.56C419.256 116.485 420.65 116.833 421.852 117.56C423.064 118.272 424.144 119.189 425.042 120.27C425.962 121.27 426.772 122.4 427.702 123.36C428.62 124.342 429.624 125.239 430.702 126.04L431.882 126.93H430.402C429.078 126.962 427.759 127.116 426.462 127.39C425.122 127.694 423.762 127.904 422.392 128.02C420.988 128.11 419.583 127.878 418.282 127.34C416.994 126.826 415.819 126.065 414.822 125.1Z" fill="#231F20"/>
<path d="M397.472 5.00043H155.852L5.20239 193.91L58.9924 429.48L276.692 534.32L494.392 429.48L548.162 193.91L397.472 5.00043ZM487.872 424.85L276.662 526.57L65.4524 424.85L13.2824 196.3L159.442 13.0004H393.872L539.992 196.3L487.872 424.85Z" fill="white"/>
</svg>
