<svg width="159" height="72" viewBox="0 0 159 72" fill="none" xmlns="http://www.w3.org/2000/svg">
<path d="M130.6 30.9C130.6 30.9 135.6 33.7 137.6 39.5C138.6 42.9 138.1 46.1 137 48.4C136.8 48.9 136.5 49.4 136.2 49.9C135 51.9 133.3 53.6 131.8 54.7C129.5 56.5 127.4 57.3 125 58.2C123.7 58.7 122.5 58.9 120.8 59.5C121.4 58.2 122.5 56.6 123.3 55.6C123.8 55 124.3 54.5 124.8 53.9C126.1 52.5 127.4 50.9 128.1 49.6C129.5 47.2 130.8 44.8 131.5 40.5C131.7 39.4 131.7 38.1 131.7 37C131.6 33.7 130.6 30.9 130.6 30.9Z" fill="#F37021"/>
<path d="M117.7 67.4C116.6 66.2 115.1 64.3 114.3 62.7C113.1 60.5 112.2 57.9 111.8 55.1C111.5 52.6 111.6 50 112.3 47.8C113.8 43.1 117.8 40.3 120.2 36C121.2 34.2 121.8 32.2 122.1 30.1C122.3 28.1 121.9 25.9 121 23.9C120.7 23.2 120.3 22.4 119.8 21.7C119.8 21.7 121.3 22.4 122.8 23.7C123.5 24.2 124.2 24.9 124.9 25.7C125.2 26.1 128 29.5 128.9 34.3C129.1 35.5 129.2 36.6 129.3 37.6C129.4 42.6 127.6 46.7 126.1 48.8C125.4 49.7 124.8 50.7 124 51.5C122.6 53.1 121 54.5 118.8 58.1C118.6 58.5 118.2 59.3 118.1 59.7C117.8 60.6 117.5 61.4 117.4 62.2C117.1 63.7 117.3 65 117.4 65.9C117.4 66.8 117.7 67.4 117.7 67.4Z" fill="#F37021"/>
<path d="M158.2 33.3C158.2 43.8 154.3 52.4 146.5 59.3C141.4 63.8 135.6 66.3 129.1 67C127.1 67.2 124.7 67.3 123 67.3L120.5 67.2C120.5 67.2 119.9 66.4 119.9 64.4C120 62.3 120.5 61.2 120.5 61.2C120.9 61.3 121.5 61.2 121.5 61.2C124.9 61 132.4 58.3 136.4 55.6C143.4 50.7 146.9 43.7 146.9 34.3C146.9 29.3 145.8 24.6 143.6 20.3C139.1 11.4 131 6.9 119.1 6.9C116.3 6.9 110.8 7.5 107.3 8.3V71.1C101.9 69.3 97.2 65.7 93.1 60.3L58.8 16.6V54.6C58.8 59.2 59.2 62.4 59.9 64.3C60.5 65.8 61.7 66.9 63.4 67.8H48.8V60.7C47.3 62.6 45.6 64.2 43.6 65.4C39.1 68.1 34.1 69.5 28.5 69.5C22.3 69.5 17.1 68 12.8 64.9C8.9 62 6.4 58.1 5.3 53.2C4.9 51.2 4.6 47.8 4.6 43.1V13.2C4.6 8.6 4.2 5.4 3.5 3.6C2.8 2.1 1.7 0.9 0 0H19.5C17.7 0.9 16.5 2.3 15.8 4C15.2 5.9 14.9 8.9 14.9 13.2V43.1C14.9 46.7 15.2 49.4 15.7 51.1C16.8 54.5 18.8 57.2 21.7 59.1C24.6 60.9 27.9 61.9 31.6 61.9C36.1 61.9 40 60.6 43.3 58C45.5 56.3 47 54.3 47.8 52.1C48.3 50.8 48.5 49 48.5 46.7V13.2C48.5 8.6 48.1 5.4 47.4 3.6C46.8 2.1 45.6 1 43.9 0.1H59.3C59.6 0.8 60.4 2.1 61.8 3.9L97.1 49V12.2C97.1 8.4 96.6 4.4 95.7 2.9C94.7 1.3 94.3 1.2 92.6 0.1H120C126.7 0.1 132.2 0.9 136.5 2.6C143.5 5.3 148.9 9.5 152.8 15.1C156.4 20.3 158.2 26.4 158.2 33.3Z" fill="#00AA4F"/>
</svg>
